<svg width="220" height="72" viewBox="0 0 220 72" fill="none" xmlns="http://www.w3.org/2000/svg">
<rect y="10" width="202" height="52" rx="26" fill="#FEC941"/>
<path d="M22.6465 42V29.2031H26.4258C27.5566 29.2031 28.5586 29.4551 29.4316 29.959C30.3105 30.4629 30.9902 31.1777 31.4707 32.1035C31.9512 33.0293 32.1914 34.0898 32.1914 35.2852V35.9268C32.1914 37.1396 31.9482 38.2061 31.4619 39.126C30.9814 40.0459 30.293 40.7549 29.3965 41.2529C28.5059 41.751 27.4834 42 26.3291 42H22.6465ZM24.8701 30.9961V40.2246H26.3203C27.4863 40.2246 28.3799 39.8613 29.001 39.1348C29.6279 38.4023 29.9473 37.3535 29.959 35.9883V35.2764C29.959 33.8877 29.6572 32.8271 29.0537 32.0947C28.4502 31.3623 27.5742 30.9961 26.4258 30.9961H24.8701ZM33.7998 37.1572C33.7998 36.2256 33.9844 35.3877 34.3535 34.6436C34.7227 33.8936 35.2412 33.3193 35.9092 32.9209C36.5771 32.5166 37.3447 32.3145 38.2119 32.3145C39.4951 32.3145 40.5352 32.7275 41.332 33.5537C42.1348 34.3799 42.5684 35.4756 42.6328 36.8408L42.6416 37.3418C42.6416 38.2793 42.46 39.1172 42.0967 39.8555C41.7393 40.5938 41.2236 41.165 40.5498 41.5693C39.8818 41.9736 39.1084 42.1758 38.2295 42.1758C36.8877 42.1758 35.8125 41.7305 35.0039 40.8398C34.2012 39.9434 33.7998 38.751 33.7998 37.2627V37.1572ZM35.9355 37.3418C35.9355 38.3203 36.1377 39.0879 36.542 39.6445C36.9463 40.1953 37.5088 40.4707 38.2295 40.4707C38.9502 40.4707 39.5098 40.1895 39.9082 39.627C40.3125 39.0645 40.5146 38.2412 40.5146 37.1572C40.5146 36.1963 40.3066 35.4346 39.8906 34.8721C39.4805 34.3096 38.9209 34.0283 38.2119 34.0283C37.5146 34.0283 36.9609 34.3066 36.5508 34.8633C36.1406 35.4141 35.9355 36.2402 35.9355 37.3418ZM52.8018 39.0557L54.3135 32.4902H56.3965L53.8037 42H52.0459L50.0068 35.4697L48.0029 42H46.2451L43.6436 32.4902H45.7266L47.2646 38.9854L49.2158 32.4902H50.8242L52.8018 39.0557ZM59.8066 32.4902L59.8682 33.5889C60.5713 32.7393 61.4941 32.3145 62.6367 32.3145C64.6172 32.3145 65.625 33.4482 65.6602 35.7158V42H63.5244V35.8389C63.5244 35.2354 63.3926 34.79 63.1289 34.5029C62.8711 34.21 62.4463 34.0635 61.8545 34.0635C60.9932 34.0635 60.3516 34.4531 59.9297 35.2324V42H57.7939V32.4902H59.8066ZM70.1162 42H67.9805V28.5H70.1162V42ZM72.0498 37.1572C72.0498 36.2256 72.2344 35.3877 72.6035 34.6436C72.9727 33.8936 73.4912 33.3193 74.1592 32.9209C74.8271 32.5166 75.5947 32.3145 76.4619 32.3145C77.7451 32.3145 78.7852 32.7275 79.582 33.5537C80.3848 34.3799 80.8184 35.4756 80.8828 36.8408L80.8916 37.3418C80.8916 38.2793 80.71 39.1172 80.3467 39.8555C79.9893 40.5938 79.4736 41.165 78.7998 41.5693C78.1318 41.9736 77.3584 42.1758 76.4795 42.1758C75.1377 42.1758 74.0625 41.7305 73.2539 40.8398C72.4512 39.9434 72.0498 38.751 72.0498 37.2627V37.1572ZM74.1855 37.3418C74.1855 38.3203 74.3877 39.0879 74.792 39.6445C75.1963 40.1953 75.7588 40.4707 76.4795 40.4707C77.2002 40.4707 77.7598 40.1895 78.1582 39.627C78.5625 39.0645 78.7646 38.2412 78.7646 37.1572C78.7646 36.1963 78.5566 35.4346 78.1406 34.8721C77.7305 34.3096 77.1709 34.0283 76.4619 34.0283C75.7646 34.0283 75.2109 34.3066 74.8008 34.8633C74.3906 35.4141 74.1855 36.2402 74.1855 37.3418ZM88.3799 42C88.2861 41.8184 88.2041 41.5225 88.1338 41.1123C87.4541 41.8213 86.6221 42.1758 85.6377 42.1758C84.6826 42.1758 83.9033 41.9033 83.2998 41.3584C82.6963 40.8135 82.3945 40.1396 82.3945 39.3369C82.3945 38.3232 82.7695 37.5469 83.5195 37.0078C84.2754 36.4629 85.3535 36.1904 86.7539 36.1904H88.0635V35.5664C88.0635 35.0742 87.9258 34.6816 87.6504 34.3887C87.375 34.0898 86.9561 33.9404 86.3936 33.9404C85.9072 33.9404 85.5088 34.0635 85.1982 34.3096C84.8877 34.5498 84.7324 34.8574 84.7324 35.2324H82.5967C82.5967 34.7109 82.7695 34.2246 83.1152 33.7734C83.4609 33.3164 83.9297 32.959 84.5215 32.7012C85.1191 32.4434 85.7842 32.3145 86.5166 32.3145C87.6299 32.3145 88.5176 32.5957 89.1797 33.1582C89.8418 33.7148 90.1816 34.5 90.1992 35.5137V39.8027C90.1992 40.6582 90.3193 41.3408 90.5596 41.8506V42H88.3799ZM86.0332 40.4619C86.4551 40.4619 86.8506 40.3594 87.2197 40.1543C87.5947 39.9492 87.876 39.6738 88.0635 39.3281V37.5352H86.9121C86.1211 37.5352 85.5264 37.6729 85.1279 37.9482C84.7295 38.2236 84.5303 38.6133 84.5303 39.1172C84.5303 39.5273 84.665 39.8555 84.9346 40.1016C85.21 40.3418 85.5762 40.4619 86.0332 40.4619ZM92.0361 37.1748C92.0361 35.71 92.376 34.5352 93.0557 33.6504C93.7354 32.7598 94.6465 32.3145 95.7891 32.3145C96.7969 32.3145 97.6113 32.666 98.2324 33.3691V28.5H100.368V42H98.4346L98.3291 41.0156C97.6904 41.7891 96.8379 42.1758 95.7715 42.1758C94.6582 42.1758 93.7559 41.7275 93.0645 40.8311C92.3789 39.9346 92.0361 38.7158 92.0361 37.1748ZM94.1719 37.3594C94.1719 38.3262 94.3564 39.082 94.7256 39.627C95.1006 40.166 95.6309 40.4355 96.3164 40.4355C97.1895 40.4355 97.8281 40.0459 98.2324 39.2666V35.2061C97.8398 34.4443 97.207 34.0635 96.334 34.0635C95.6426 34.0635 95.1094 34.3389 94.7344 34.8896C94.3594 35.4346 94.1719 36.2578 94.1719 37.3594ZM114.448 39.0205H109.491L108.454 42H106.143L110.977 29.2031H112.972L117.814 42H115.494L114.448 39.0205ZM110.115 37.2275H113.824L111.97 31.9189L110.115 37.2275ZM121.497 37.2451V42H119.273V29.2031H124.169C125.599 29.2031 126.732 29.5752 127.57 30.3193C128.414 31.0635 128.836 32.0479 128.836 33.2725C128.836 34.5264 128.423 35.502 127.597 36.1992C126.776 36.8965 125.625 37.2451 124.143 37.2451H121.497ZM121.497 35.4609H124.169C124.96 35.4609 125.563 35.2764 125.979 34.9072C126.396 34.5322 126.604 33.9932 126.604 33.29C126.604 32.5986 126.393 32.0479 125.971 31.6377C125.549 31.2217 124.969 31.0078 124.23 30.9961H121.497V35.4609ZM133.011 37.2451V42H130.787V29.2031H135.683C137.112 29.2031 138.246 29.5752 139.084 30.3193C139.928 31.0635 140.35 32.0479 140.35 33.2725C140.35 34.5264 139.937 35.502 139.11 36.1992C138.29 36.8965 137.139 37.2451 135.656 37.2451H133.011ZM133.011 35.4609H135.683C136.474 35.4609 137.077 35.2764 137.493 34.9072C137.909 34.5322 138.117 33.9932 138.117 33.29C138.117 32.5986 137.906 32.0479 137.484 31.6377C137.062 31.2217 136.482 31.0078 135.744 30.9961H133.011V35.4609Z" fill="white"/>
<circle cx="184" cy="36" r="35" fill="#1F88A9" stroke="white" stroke-width="2"/>
<path d="M175 43H193V45H175V43ZM185 37.172L191.071 31.1L192.485 32.514L184 41L175.515 32.515L176.929 31.1L183 37.17V26H185V37.172Z" fill="white"/>
</svg>
