<svg xmlns="http://www.w3.org/2000/svg" id="bdc9448b-6264-43b2-9db9-c83b99c1b653" data-name="Layer 1" width="27" height="27" viewBox="0 0 27 27"><path d="M13.5,1A13.5,13.5,0,1,0,27,14.5,13.5155,13.5155,0,0,0,13.5,1Zm0,25A11.5,11.5,0,1,1,25,14.5,11.5131,11.5131,0,0,1,13.5,26Z" transform="translate(0 -1)"></path><path d="M15.2852,9.582a3.7544,3.7544,0,0,0-1.6592-.35,3.68,3.68,0,0,0-1.729.378,2.65,2.65,0,0,0-1.0991,1.0361,2.8528,2.8528,0,0,0-.3638,1.498h1.6938a1.3962,1.3962,0,0,1,.3921-1.0429,1.49,1.49,0,0,1,1.0918-.3858,1.5,1.5,0,0,1,1.0777.3858,1.3833,1.3833,0,0,1,.4062,1.0566,1.4829,1.4829,0,0,1-.35,1.0645,1.783,1.783,0,0,1-.938.4892,6.2281,6.2281,0,0,1-1.3022.126h-.6441l.0562,2.31H13.5l.042-1.12a4.5645,4.5645,0,0,0,1.7012-.3222,2.5639,2.5639,0,0,0,1.1611-.9375,2.782,2.782,0,0,0,.4277-1.5967,2.9085,2.9085,0,0,0-.4131-1.5889A2.7208,2.7208,0,0,0,15.2852,9.582Z" transform="translate(0 -1)"></path><path d="M12.7158,17.1846a1.1036,1.1036,0,0,0-.8047.3076,1.0155,1.0155,0,0,0-.3149.7558.9992.9992,0,0,0,.3149.7422,1.1036,1.1036,0,0,0,.8047.3077,1.0817,1.0817,0,0,0,.7984-.3077,1.011,1.011,0,0,0,.3076-.7422,1.0277,1.0277,0,0,0-.3076-.7558A1.0816,1.0816,0,0,0,12.7158,17.1846Z" transform="translate(0 -1)"></path></svg>