<svg xmlns="http://www.w3.org/2000/svg" id="e14f6ed8-c734-4496-b5b8-d25c6af0b0c8" data-name="Layer 1" width="30" height="32.013" viewBox="0 0 30 32.013"><path d="M28.4131,13.7573A11.2025,11.2025,0,0,0,22.168,12c-.2881,0-.5371.0088-.7559.0161-.0438.0017-.0766.0013-.1177.0027-.0842-.0746-.1659-.1519-.2533-.2231a4.1056,4.1056,0,0,0,.0058-.9036c-.0108-.1455-.0225-.3037-.0283-.4727a11.4856,11.4856,0,0,0-1.8223-6.042,4.75,4.75,0,0,0-3.9756-2.39,4.75,4.75,0,0,0-3.7983,2.6616,11.48,11.48,0,0,0-1.397,6.1538c.0058.17.0054.3306.0049.4781a5.7723,5.7723,0,0,0,.0266.7014C9.9811,11.989,9.9094,12,9.832,12a11.2025,11.2025,0,0,0-6.2451,1.7573A5.2245,5.2245,0,0,0,1,18a5.2231,5.2231,0,0,0,2.5869,4.2422A11.1963,11.1963,0,0,0,9.832,24c.0716,0,.1332-.0019.2-.0029A3.3153,3.3153,0,0,0,9.96,25.1816c.0079.1241.0167.2549.021.3916a11.4629,11.4629,0,0,0,1.8228,6.0352,4.81,4.81,0,0,0,3.85,2.39c.041,0,.083-.0009.1245-.0029h0a4.7526,4.7526,0,0,0,3.7988-2.6592,11.46,11.46,0,0,0,1.3965-6.1474c-.0068-.1953-.0068-.375-.0068-.5371-.0008-.1416-.0042-.2633-.0081-.3861.0786-.0624.156-.1257.2322-.1909l.0083.0008a4.5359,4.5359,0,0,0,.5059-.0381A4.0585,4.0585,0,0,1,22.168,24a11.2044,11.2044,0,0,0,6.2461-1.7578A5.2256,5.2256,0,0,0,31,18,5.2245,5.2245,0,0,0,28.4131,13.7573Zm-7.6426,7.8618-.026.04a5.9721,5.9721,0,0,1-8.7667.78,2.7084,2.7084,0,0,0-.5613-.8272,1.8916,1.8916,0,0,1-.2217-.26A12.7724,12.7724,0,0,1,10.1589,19.35a5.9086,5.9086,0,0,1,.5147-4.1009c.1387-.242.2837-.4774.4305-.7062a5.9754,5.9754,0,0,1,8.9181-.9826,2.6568,2.6568,0,0,0,.57.81,1.924,1.924,0,0,1,.208.2319,13.0494,13.0494,0,0,1,1.0051,1.9062,5.8911,5.8911,0,0,1-.3212,3.9154C21.2638,20.84,21.0146,21.241,20.7705,21.6191ZM13.145,5.6646c.36-.6114,1.1182-1.6426,2.146-1.6783.0181-.0009.0366-.0009.0552-.0009a3.073,3.073,0,0,1,2.2017,1.5253,9.4031,9.4031,0,0,1,1.4658,4.8228,8.3754,8.3754,0,0,0-3.5591-.8486A8.0884,8.0884,0,0,0,12.02,10.5571,9.3894,9.3894,0,0,1,13.145,5.6646ZM3,18a3.4472,3.4472,0,0,1,1.7109-2.5884,8.8646,8.8646,0,0,1,4.3559-1.3858c-.0651.1131-.127.2277-.1867.3441A7.0213,7.0213,0,0,0,7.832,17.813a6.25,6.25,0,0,0,.4372,2.21,7.94,7.94,0,0,0,.7915,1.9416,8.8631,8.8631,0,0,1-4.35-1.3763A3.4481,3.4481,0,0,1,3,18ZM17.8555,30.32c-.36.61-1.1182,1.64-2.1465,1.6768a3.1327,3.1327,0,0,1-2.2573-1.5235,9.4488,9.4488,0,0,1-1.4712-4.97l-.002-.0478c.0684.0322.1362.0625.2031.0888a9.2687,9.2687,0,0,0,3.8648.9063,6.8624,6.8624,0,0,0,2.937-.8506A9.2929,9.2929,0,0,1,17.8555,30.32ZM27.29,20.5879a8.8761,8.8761,0,0,1-4.356,1.3851q.1926-.3348.3527-.6889a6.7889,6.7889,0,0,0,.8813-3.1493,6.2707,6.2707,0,0,0-.4692-2.2819,7.9434,7.9434,0,0,0-.76-1.8185,8.8643,8.8643,0,0,1,4.3507,1.3772A3.4459,3.4459,0,0,1,29,18,3.4464,3.4464,0,0,1,27.29,20.5879Z" transform="translate(-1 -1.985)"></path></svg>