<svg xmlns="http://www.w3.org/2000/svg" id="b94bd3a5-5a5e-415e-9eba-428299208f45" data-name="Layer 1" width="29" height="29" viewBox="0 0 29 29"><path d="M24.7529,4.2471A14.5,14.5,0,0,0,0,14.5a12.4616,12.4616,0,0,0,1.3022,6.3945,42.54,42.54,0,0,1-.5991,4.3741l-.3135,1.9,3.86-.3164q1.2319-.1025,1.83-.1591A15.0406,15.0406,0,0,0,14.5,29,14.5,14.5,0,0,0,24.7529,4.2471Zm-1.414,19.0918A12.4175,12.4175,0,0,1,14.5,27a13.3147,13.3147,0,0,1-7.6606-2.1846l-.29-.18-.3389.0362q-.5.0513-2.1274.1885L2.78,24.9688a32.2581,32.2581,0,0,0,.5312-4.294l.0059-.2764L3.18,20.1592A10.4088,10.4088,0,0,1,2,14.5,12.5,12.5,0,0,1,23.3389,5.6611a12.5,12.5,0,0,1,0,17.6778Z"></path><rect x="6.5" y="10.5" width="16" height="2"></rect><rect x="6.5" y="15.5" width="11" height="2"></rect></svg>