<svg xmlns="http://www.w3.org/2000/svg" id="a06f51c9-0e45-40b0-ab96-e0dc527d8996" data-name="Layer 1" width="25.2002" height="32.4004" viewBox="0 0 25.2002 32.4004"><path d="M21.51,3.69A12.6013,12.6013,0,1,0,7.2007,23.9883L7.2,30a2.399,2.399,0,0,0,2.4,2.4h6A2.4005,2.4005,0,0,0,18,30l.001-6.0117A12.6044,12.6044,0,0,0,21.51,3.69Zm-5.627,26.5928A.3983.3983,0,0,1,15.6,30.4h-6a.4.4,0,0,1-.4-.4V28.5H16L16,30A.3934.3934,0,0,1,15.8828,30.2832Zm5.6836-12.0273a10.7133,10.7133,0,0,1-4.9453,4.1562l-.62.2539L16,26.5H9.2l0-1.7H16v-2H9.2007V22.666L8.58,22.4121a10.7227,10.7227,0,0,1-4.9473-4.1562,10.6006,10.6006,0,1,1,17.9336,0Z"></path></svg>