<svg xmlns="http://www.w3.org/2000/svg" id="b2aa1b82-9b6c-43e6-b785-496aecf01837" data-name="Layer 1" width="33" height="30" viewBox="0 0 33 30"><polygon points="2 2 7 2 7 0 2 0 0 0 0 2 0 28 0 30 2 30 7 30 7 28 2 28 2 2"></polygon><polygon points="31 0 26 0 26 2 31 2 31 28 26 28 26 30 31 30 33 30 33 28 33 2 33 0 31 0"></polygon><path d="M16.5,9A6.5,6.5,0,1,0,23,15.5,6.5075,6.5075,0,0,0,16.5,9Zm0,11A4.5,4.5,0,1,1,21,15.5,4.505,4.505,0,0,1,16.5,20Z"></path><path d="M16.5,5A10.5,10.5,0,1,0,27,15.5,10.512,10.512,0,0,0,16.5,5Zm0,19A8.5,8.5,0,1,1,25,15.5,8.51,8.51,0,0,1,16.5,24Z"></path></svg>