<svg xmlns="http://www.w3.org/2000/svg" id="af86011d-df72-4c64-97cd-fb9b7699f9aa" data-name="Layer 1" width="19" height="29" viewBox="0 0 19 29"><defs><style>.a91a53e4-223a-403b-85c8-6e1bd4e72f1e{fill-rule:evenodd;}</style></defs><path class="a91a53e4-223a-403b-85c8-6e1bd4e72f1e" d="M13.8161,4a2.9839,2.9839,0,0,0-2.81-4H7.9941a2.9711,2.9711,0,0,0-2.81,4H0V29H19V4ZM7.291,2.291A.9892.9892,0,0,1,7.9941,2h3.0118a.9944.9944,0,0,1,0,1.9888H7.9941A.9948.9948,0,0,1,7.291,2.291ZM17,27H2V6H17Z"></path><path class="a91a53e4-223a-403b-85c8-6e1bd4e72f1e" d="M9,16.7226V19a1,1,0,0,0,2,0V16.7226a2,2,0,1,0-2,0Z"></path></svg>