<svg xmlns="http://www.w3.org/2000/svg" id="a6a6f6f9-78b5-4c71-b234-898b6b280332" data-name="Layer 1" width="22.169" height="22.1768" viewBox="0 0 22.169 22.1768"><path d="M21.8643,10.3623a1.0153,1.0153,0,0,0-.7159-.2935H12.1016l-.001-9.0415A1.0225,1.0225,0,0,0,11.084,0a1.0335,1.0335,0,0,0-1.0269,1.0268v9.042H1.0039a1.0213,1.0213,0,0,0,.0107,2.0425l9.0435.001v9.0391a1.032,1.032,0,0,0,1.03,1.0254A1.0221,1.0221,0,0,0,12.1016,21.15V12.1123h9.041a1.0347,1.0347,0,0,0,1.0263-1.03A1.0144,1.0144,0,0,0,21.8643,10.3623Z" transform="translate(0 0)"></path></svg>